<svg xmlns="http://www.w3.org/2000/svg" viewBox="0 0 166.99 87.81"><defs><style>.cls-1{fill:#fff;}</style></defs><title>Asset 9</title><g id="Layer_2" data-name="Layer 2"><g id="Layer_1-2" data-name="Layer 1"><path class="cls-1" d="M47.4,26.09v4.12H47A10.79,10.79,0,0,1,36.62,19.42V0H41V8.63h9.68A14.63,14.63,0,0,0,47.34,13h-6.4v6.47a6.49,6.49,0,0,0,6.4,6.48.83.83,0,0,0,.07.13v.06ZM64.65,4.34H69V0H64.65Zm-14,15.09V30.22h4.31V19.43A6.47,6.47,0,0,1,61.42,13V8.65a10.4,10.4,0,0,0-7.63,3.16A10.35,10.35,0,0,0,50.63,19.43Zm14,10.8h4.32L69,8.66H64.65Zm18.58-3.7c-.09-.13-.17-.27-.25-.41v-.05a.91.91,0,0,0-.07-.14,6.47,6.47,0,0,1-6.39-6.48V13H82.9a14.43,14.43,0,0,1,3.27-4.31H76.5V0H72.19l0,19.42a10.39,10.39,0,0,0,3.16,7.63,10.36,10.36,0,0,0,7.22,3.16h3.6A14.63,14.63,0,0,1,83.2,26.53ZM104,11.85a10.4,10.4,0,0,1,3.15,7.63A10.77,10.77,0,0,1,96.3,30.26a10.39,10.39,0,0,1-7.62-3.17,10.42,10.42,0,0,1-3.15-7.63,10.39,10.39,0,0,1,3.17-7.62,10.79,10.79,0,0,1,15.25,0Zm-1.16,7.63A6.48,6.48,0,1,0,91.74,24a6.48,6.48,0,0,0,11.05-4.56ZM120.71,8.71a10.84,10.84,0,0,0-10.5,8.19,10.88,10.88,0,0,0-.3,2.59V30.27h4.32V19.49A6.49,6.49,0,0,1,120.71,13a6.49,6.49,0,0,1,6.46,6.48V30.29h4.32V19.51a10.39,10.39,0,0,0-3.16-7.63A10.36,10.36,0,0,0,120.71,8.71Z"/><path class="cls-1" d="M56.73,37.11,56,39.61a4,4,0,0,1-.27.56,3.55,3.55,0,0,1-.65.81,6.49,6.49,0,0,1-1.67,1.13,5.09,5.09,0,0,1-3,.32,5.09,5.09,0,0,1-2.5-.77,3.25,3.25,0,0,1-1.11-1.25,1.24,1.24,0,0,1-.09-1l.18-.64c.19-.49.39-1,.61-1.46s.47-1,.78-1.61a1.17,1.17,0,0,1,.28-.32,2,2,0,0,1,.93-.49,12.63,12.63,0,0,1,3-.28S57.44,34.62,56.73,37.11Z"/><path class="cls-1" d="M53.51,46.49a1.24,1.24,0,0,0-.7-1.58,12.28,12.28,0,0,0-2.46-.61,11.38,11.38,0,0,0-3,0,15.37,15.37,0,0,0-2.43.49,1.27,1.27,0,0,0-.78.67l-3.48,7.13-.06.11c-.51.84-1,1.63-1.5,2.35a18.15,18.15,0,0,1-1.29,1.76,3.42,3.42,0,0,1-.93.84,1.53,1.53,0,0,1-.65.18.42.42,0,0,1-.46-.28c-.37-.3-.43-1.09-.19-2.36a36.31,36.31,0,0,1,1.21-4.4A1.68,1.68,0,0,0,37,50l.37-.83,2.78-7A2.59,2.59,0,0,0,39.74,40a4.1,4.1,0,0,0-1.66-1.34,10.37,10.37,0,0,0-2.23-.7c-.8-.15-1.48-.26-2-.32a1.58,1.58,0,0,0-1.29.27l-.47.47a2.37,2.37,0,0,1-.51.69,1.45,1.45,0,0,1-.69.42,1.42,1.42,0,0,1-.65-.19A1,1,0,0,1,30,38.7a1.35,1.35,0,0,1,0-.65c0-.31,0-.73,0-1.25s.05-1.07.05-1.63a11.57,11.57,0,0,0-.74-3.52A2.53,2.53,0,0,0,26.77,30,3.78,3.78,0,0,0,24,31.1a6.23,6.23,0,0,0-1.57,2.69,8.57,8.57,0,0,0-.28,3.38,7.53,7.53,0,0,0,1.11,3.29c-.25.55-.57,1.23-1,2a9.29,9.29,0,0,1-2.74,3.68,1.41,1.41,0,0,1-.39.19c-.86.29-1.71.56-2.57.81a18.46,18.46,0,0,1-2.78.61l.93-2.6q1-2.51,2.17-5.37c.78-1.92,1.47-3.58,2.09-5,.86-2.16,1.71-4.13,2.55-5.93s1.56-3.33,2.17-4.63q1-2.31,1.95-4.07a7,7,0,0,0-1.2-.75,15.69,15.69,0,0,0-1.58-.55,7.64,7.64,0,0,0-2.22-.28,14.56,14.56,0,0,0-2.18.14,6.43,6.43,0,0,0-1.34.32,5.5,5.5,0,0,0-.93.47c-.62,1.11-1.27,2.41-2,3.89-.61,1.23-1.29,2.72-2,4.45S10.68,31.5,9.82,33.6L7,40.73l-1.3,3.34c-.37,1.11-.87,2.66-1.48,4.63S3,52.81,2.4,55.1C2,56.83,1.56,58.79,1.15,61S.44,65.43.23,67.74A51,51,0,0,0,0,74.6a22.14,22.14,0,0,0,1.07,6.16,12.13,12.13,0,0,0,2.68,4.63,8,8,0,0,0,4.73,2.32,9.57,9.57,0,0,0,5-.56A9,9,0,0,0,17,84.42q1.66-2,1.86-6.16V77.05a4.54,4.54,0,0,0-.1-.83,5.66,5.66,0,0,0-.74-2.36,4.73,4.73,0,0,0-1.2-1.35,4.07,4.07,0,0,0-1.58-.74,5.27,5.27,0,0,1,0,2.09c-.16.71-.27,1.19-.33,1.43A5.82,5.82,0,0,1,14.08,77a2.11,2.11,0,0,1-1.58.88H12a1.64,1.64,0,0,1-1.21-.47.68.68,0,0,0-.18-.13.49.49,0,0,1-.19-.24,2,2,0,0,1-.55-1.2,6.45,6.45,0,0,1-.28-1.11A5.9,5.9,0,0,1,9.45,74a28.54,28.54,0,0,1-.24-3.2A34.33,34.33,0,0,1,9.35,67l.37-3.47s0-.06,0-.1q.46-2.57,1-5c.31-1.39.64-2.74,1-4a1.22,1.22,0,0,1,1-.88,29.44,29.44,0,0,0,5.54-1.35,16,16,0,0,0,7.34-4.29,2.14,2.14,0,0,0,.13-.19c.57-1,1.19-2.11,1.85-3.43a7.76,7.76,0,0,0,1.94.84q-.93,2.69-1.48,4.63t-.93,3.24c-.25,1.05-.43,1.92-.55,2.6a14.5,14.5,0,0,0-.51,6.34,8,8,0,0,0,1.53,3.48,5,5,0,0,0,3.05,1.76,8.11,8.11,0,0,0,5.89-1.39A22.08,22.08,0,0,0,41,61.59a1.46,1.46,0,0,0,0,.22,8.48,8.48,0,0,0,1.57,3.48,5.37,5.37,0,0,0,3.06,1.76,8,8,0,0,0,5.84-1.39,22.59,22.59,0,0,0,4.77-4.45c.15-.19.27-.38.42-.56a7.31,7.31,0,0,0,1.66,3.8l.1.1a7.16,7.16,0,0,0,2.59,1.94,21.16,21.16,0,0,0,2.87,1,18.18,18.18,0,0,0,3.25.46,9.25,9.25,0,0,0,2.68,0l2-.27a15.32,15.32,0,0,0,4.73-1.86,26.23,26.23,0,0,0,3.8-2.78c.55-.49,1.07-1,1.54-1.5a14.31,14.31,0,0,0,0,1.5,7,7,0,0,0,.51,2.37A4.06,4.06,0,0,0,84,67.32a5,5,0,0,0,3.24.56,3.46,3.46,0,0,0,.83-.09l1.76-.42a5.54,5.54,0,0,0,1.67-.69A1.9,1.9,0,0,1,91,66.4a2.57,2.57,0,0,1-.74-.84,4.63,4.63,0,0,1-.51-1.48A5.22,5.22,0,0,1,90,61.77c.18-.74.35-1.49.51-2.23a14.53,14.53,0,0,1,.6-2.13,37.76,37.76,0,0,1,2.36-5.93,40.87,40.87,0,0,1,2.92-5,22.5,22.5,0,0,1,2.78-3.38c.86-.84,1.51-1.19,1.94-1.07a.86.86,0,0,1,.7.79,6.51,6.51,0,0,1,.09,1.57,8.82,8.82,0,0,1-.27,1.76q-.24.89-.42,1.44a2.17,2.17,0,0,0-.28.74q-.56,1.86-.93,3.15c-.24.87-.43,1.61-.55,2.22A12.25,12.25,0,0,0,99,55.47a14.5,14.5,0,0,0-.51,6.34,8.1,8.1,0,0,0,1.53,3.48,5,5,0,0,0,3,1.76A8.11,8.11,0,0,0,109,65.66a21.86,21.86,0,0,0,4.81-4.45c.12-.15.22-.29.33-.44.06.3.11.6.18.9a7.32,7.32,0,0,0,1.25,2.64,7,7,0,0,0,2.37,2,9.56,9.56,0,0,0,3.8,1,8.76,8.76,0,0,0,5.83-1.3,13.07,13.07,0,0,0,3.71-3.7,6.72,6.72,0,0,0,1.11,2.64,5.84,5.84,0,0,0,1.48,1.44,6,6,0,0,0,1.95.74,6.91,6.91,0,0,0,2.36,0,9.73,9.73,0,0,0,2.18-.69,13.07,13.07,0,0,0,4.21-3c.45-.47.87-.95,1.28-1.44.07.15.09.32.16.47a8.65,8.65,0,0,0,2.83,3.34,10,10,0,0,0,5.79,1.57,11.26,11.26,0,0,0,8.94-3.56,12.62,12.62,0,0,0,2.82-5.89A20.63,20.63,0,0,0,166.9,51q-.32-3.06-.83-5.56c-.34-1.67-.6-3.2-.79-4.59a6.26,6.26,0,0,1,.74-3.93,4.24,4.24,0,0,0-1.48-1.21,13.76,13.76,0,0,0-2.22-.93,16,16,0,0,0-3.52-.64c-.37.61-.78,1.26-1.21,1.94s-.77,1.36-1.2,2.22-.9,1.8-1.39,2.78l-2.59,5.17-.1-.07a2.17,2.17,0,0,0-1.48-.19,3.41,3.41,0,0,0-1.11.56,2.88,2.88,0,0,0-.93,1.11L147.33,50c-.08.1-.17.17-.25.27a8.45,8.45,0,0,0-1,1.77l-.37.59c-.53.87-1,1.67-1.53,2.41a19.81,19.81,0,0,1-1.3,1.76,3.42,3.42,0,0,1-.93.84,1.49,1.49,0,0,1-.64.18c-.25,0-.41-.09-.47-.28s-.28-.3-.28-.74a5.74,5.74,0,0,1,.19-1.94c.18-.8.42-1.68.69-2.64s.62-2,1-3.11.82-2.19,1.25-3.24q1-2.59,2.27-5.65c.84-2,1.59-3.83,2.27-5.38.87-2.16,1.7-4.13,2.51-5.93s1.51-3.33,2.13-4.63a39.46,39.46,0,0,1,2-4.07,7.1,7.1,0,0,0-1.21-.75,15.42,15.42,0,0,0-1.57-.55,7.66,7.66,0,0,0-2.23-.28,14.75,14.75,0,0,0-2.18.14,6.77,6.77,0,0,0-1.34.32l-.92.47c-.62,1.11-1.27,2.41-2,3.89-.62,1.23-1.3,2.72-2,4.45s-1.54,3.64-2.41,5.74c-.25.49-.55,1.24-.93,2.22l-1.11,3a6.18,6.18,0,0,0-1.94-1.39,8.54,8.54,0,0,0-3.71-.65,17.79,17.79,0,0,0-4.45.6,13,13,0,0,0-4.49,2.23,18.67,18.67,0,0,0-4.08,4.35,22,22,0,0,0-1.78,3.14,3.35,3.35,0,0,0-.39.61L114.69,50c-.55.86-1.09,1.73-1.62,2.59s-1,1.67-1.52,2.41a19.81,19.81,0,0,1-1.3,1.76,3.42,3.42,0,0,1-.93.84,1.53,1.53,0,0,1-.65.18.42.42,0,0,1-.46-.28c-.49-.3-.54-1.26-.14-2.87a50.58,50.58,0,0,1,1.71-5.37c1.18-3.52,1.36-6.36.56-8.53a5.77,5.77,0,0,0-5-3.79,7.88,7.88,0,0,0-1.58-.19A8.1,8.1,0,0,0,100,38a18.25,18.25,0,0,0-3.42,2.69c.37-.92.64-1.67.83-2.22a5.48,5.48,0,0,0,.28-.93,10.13,10.13,0,0,0-3.2-1,18.39,18.39,0,0,0-2.78-.14,9.34,9.34,0,0,0-2.08.28c-.56.16-.93.26-1.11.33l-.1.09L86.9,41.29c-.69,2-1.32,4.13-1.93,6.26a1,1,0,0,1-.17.35c-.57.82-1.19,1.75-1.84,2.79s-1.4,2.24-2.08,3.29l-1,1.39c-.56.68-1.2,1.42-2,2.23a12.69,12.69,0,0,1-2.32,2l-.18.1-1.67.79a10,10,0,0,1-2.73.74,6.82,6.82,0,0,1-2.92-.28l-.37-.18a1.18,1.18,0,0,1-.74-.47,2,2,0,0,1-.65-.51,5.37,5.37,0,0,1-.46-.6,4,4,0,0,1-.37-1,3.31,3.31,0,0,1-.09-.6,4.71,4.71,0,0,1,0-1.76c.09-.62.2-1.18.32-1.67a9.37,9.37,0,0,0,2.41,1.3,4.73,4.73,0,0,1,1,.23,6.17,6.17,0,0,0,2.08.14A9.51,9.51,0,0,0,74.86,55a9.83,9.83,0,0,0,2.68-1.8A10.81,10.81,0,0,0,79.35,51a19.74,19.74,0,0,0,1.07-2v-.09a4.36,4.36,0,0,0,.37-.84v-.18l.09-.19a9.92,9.92,0,0,0,.46-2.78,8.61,8.61,0,0,0-.09-1.48A9.43,9.43,0,0,0,81,42a2.78,2.78,0,0,1-.14-.69l-.09-.09a6,6,0,0,0-2.09-3.06A6.38,6.38,0,0,0,76.43,37,9,9,0,0,0,74,36.75a17.79,17.79,0,0,0-4.45.6,13,13,0,0,0-4.49,2.23A18.67,18.67,0,0,0,61,43.93a21.54,21.54,0,0,0-1.68,3,3.32,3.32,0,0,0-.59.8c-.49.68-1,1.45-1.52,2.32s-1.07,1.73-1.62,2.59S54.5,54.26,54,55a19.81,19.81,0,0,1-1.3,1.76,3.57,3.57,0,0,1-.92.84,1.56,1.56,0,0,1-.65.18.44.44,0,0,1-.47-.28c-.24-.18-.34-.61-.27-1.29a15.32,15.32,0,0,1,.46-2.46Zm17.73-2.37c1.73-1.52,3.21-2,4.45-1.35.43.25.71.87.83,1.86a10.2,10.2,0,0,1-.14,1.52,8.21,8.21,0,0,1-.55,2,5.92,5.92,0,0,1-3.48,3.33,6.48,6.48,0,0,1-3.7.33A5.88,5.88,0,0,1,66.8,51,17.67,17.67,0,0,1,71.24,44.12Zm62.49,2.82a15.55,15.55,0,0,1-.6,2.5c-.25.74-.4,1.21-.46,1.39l.09-.18a.73.73,0,0,1-.09.46v-.18a24.78,24.78,0,0,1-2.13,4.77,13.11,13.11,0,0,1-2.18,2.78,5.31,5.31,0,0,1-2,1.25,3.64,3.64,0,0,1-1.81.09,1.8,1.8,0,0,1-1.62-1.39,6.34,6.34,0,0,1-.14-2.5,18.46,18.46,0,0,1,.84-3.52,24.22,24.22,0,0,1,2.18-4.63,16.54,16.54,0,0,1,2.54-3.29,7.67,7.67,0,0,1,2.51-1.72,2.76,2.76,0,0,1,2.22,0,1.77,1.77,0,0,1,.83,1.58A10.57,10.57,0,0,1,133.73,46.94Zm24.83,6.3a9.88,9.88,0,0,1-.83,3.38,3.5,3.5,0,0,1-2.36,2,3.18,3.18,0,0,1-.74.09,5.42,5.42,0,0,1-.65-.05,1.12,1.12,0,0,1-.65-.32,2.43,2.43,0,0,1-.56-2.78,3.71,3.71,0,0,1,1.12-2.13,6.17,6.17,0,0,1,1.66-1.11,8,8,0,0,1,2.13-.47l-.18-.74a6.23,6.23,0,0,1-.33-.79,3.09,3.09,0,0,0-.5-.88l1.38-2.31c.13.55.27,1.4.42,2.54A16.27,16.27,0,0,1,158.56,53.24Z"/></g></g></svg>